<svg xmlns="http://www.w3.org/2000/svg" viewBox="0 0 48 48">
  <path fill="#4285F4" d="M24 9.5c3.8 0 6.4 1.6 7.9 3l5.8-5.8C33.8 3.3 29.3 1.5 24 1.5 14.7 1.5 6.9 7.3 3.9 15.5l6.7 5.2C12.2 14.5 17.5 9.5 24 9.5z"/>
  <path fill="#34A853" d="M46.5 24c0-1.5-.2-3-.5-4.4H24v8.5h12.7c-.6 3-2.3 5.5-5 7.2l7.7 6c4.5-4.2 7.1-10.3 7.1-17.3z"/>
  <path fill="#FBBC05" d="M10.6 28.4c-.9-2.6-.9-5.4 0-8l-6.7-5.2c-2.9 5.8-2.9 12.6 0 18.4l6.7-5.2z"/>
  <path fill="#EA4335" d="M24 46.5c5.3 0 9.8-1.8 13.1-4.8l-7.7-6c-2.1 1.4-4.8 2.3-8.4 2.3-6.5 0-11.8-5-13.4-11.3l-6.7 5.2c3 8.2 10.8 14 20.1 14z"/>
</svg>
